{"title":"Lost S01E18 - AVM","uid":5044062,"size":140401596,"categoryP":"video","categoryS":"tv_shows","magnet":"?xt=urn:btih:e46cc59cf0ec3393d22cc93500f67e86bb33ee58&amp;dn=Lost+S01E18+-+AVM&amp;tr=udp%3A%2F%2Ftracker.openbittorrent.com%3A80&amp;tr=udp%3A%2F%2Fopen.demonii.com%3A1337&amp;tr=udp%3A%2F%2Ftracker.coppersurfer.tk%3A6969&amp;tr=udp%3A%2F%2Fexodus.desync.com%3A6969","seeders":0,"leechers":1,"uploader":"SysProfile","files":1,"time":1249535442,"description":"AVIDMobile - http://www.avidmobile.com.ar (Mobile media)\n\nVideo\nID                               : 1\nFormat                           : MPEG-4 Visual\nFormat profile                   : Simple@L1\nFormat settings, BVOP            : No\nFormat settings, QPel            : No\nFormat settings, GMC             : No warppoints\nFormat settings, Matrix          : Default (H.263)\nCodec ID                         : 20\nDuration                         : 43mn 8s\nBit rate mode                    : Variable\nBit rate                         : 365 Kbps\nMaximum bit rate                 : 2 230 Kbps\nWidth                            : 320 pixels\nHeight                           : 240 pixels\nDisplay aspect ratio             : 4/3\nFrame rate mode                  : Variable\nFrame rate                       : 23.976 fps\nMinimum frame rate               : 23.974 fps\nMaximum frame rate               : 23.981 fps\nResolution                       : 24 bits\nColorimetry                      : 4:2:0\nScan type                        : Progressive\nBits/(Pixel*Frame)               : 0.198\nStream size                      : 113 MiB (84%)\n\nAudio\nID                               : 2\nFormat                           : AAC\nFormat/Info                      : Advanced Audio Codec\nFormat version                   : Version 4\nFormat profile                   : LC\nFormat settings, SBR             : No\nCodec ID                         : 40\nDuration                         : 43mn 8s\nBit rate mode                    : Variable\nBit rate                         : 66.15 Kbps\nMaximum bit rate                 : 103 Kbps\nChannel(s)                       : 2 channels\nChannel positions                : L R\nSampling rate                    : 22.05 KHz\nResolution                       : 16 bits\nStream size                      : 20.6 MiB (15%)\n","torrent":{"xt":"urn:btih:e46cc59cf0ec3393d22cc93500f67e86bb33ee58","amp;dn":"Lost+S01E18+-+AVM","amp;tr":["udp%3A%2F%2Ftracker.openbittorrent.com%3A80","udp%3A%2F%2Fopen.demonii.com%3A1337","udp%3A%2F%2Ftracker.coppersurfer.tk%3A6969","udp%3A%2F%2Fexodus.desync.com%3A6969"],"infoHash":"e46cc59cf0ec3393d22cc93500f67e86bb33ee58","infoHashBuffer":{"type":"Buffer","data":[228,108,197,156,240,236,51,147,210,44,201,53,0,246,126,134,187,51,238,88]},"announce":[],"urlList":[]}}